<svg xmlns="http://www.w3.org/2000/svg" xmlns:xlink="http://www.w3.org/1999/xlink" width="16" height="16" version="1.1" viewBox="0 0 16 16"><title>in-progress</title><desc>Created with Sketch.</desc><defs><linearGradient id="linearGradient-1" x1="0%" x2="96.552%" y1="3.448%" y2="100%"><stop offset="0%" stop-color="#2AB7EC"/><stop offset="100%" stop-color="#2AB7EC" stop-opacity=".502"/></linearGradient><linearGradient id="linearGradient-2" x1="0%" x2="96.552%" y1="3.448%" y2="100%"><stop offset="0%" stop-color="#2AB7EC"/><stop offset="100%" stop-color="#2AB7EC" stop-opacity=".502"/></linearGradient><linearGradient id="linearGradient-3" x1="0%" x2="96.551%" y1="3.448%" y2="100%"><stop offset="0%" stop-color="#2AB7EC"/><stop offset="100%" stop-color="#2AB7EC" stop-opacity=".502"/></linearGradient></defs><g id="Page-1" fill="none" fill-rule="evenodd" stroke="none" stroke-width="1"><g id="in-progress" stroke-width="1.5"><circle id="circle5454" cx="8" cy="8" r="7.25" stroke="#2AB7EC" opacity=".1"/><path id="path5458" stroke="url(#linearGradient-1)" d="M0.74998852,8.00001312 C2.67281084,8.00001275 4.51687947,8.76385078 5.87652017,10.1234915 C7.23616086,11.4831322 7.99999889,13.3272008 7.99999852,15.2500231" transform="translate(4.374994, 11.625018) scale(-1, 1) rotate(90.000000) translate(-4.374994, -11.625018)"/><path id="path5460" stroke="url(#linearGradient-2)" d="M7.99999852,8.00001312 C9.92282084,8.00001275 11.7668895,8.76385078 13.1265302,10.1234915 C14.4861709,11.4831322 15.2500089,13.3272008 15.2500085,15.2500231" opacity=".5" transform="translate(11.625004, 11.625018) scale(1, -1) translate(-11.625004, -11.625018)"/><path id="path5462" stroke="url(#linearGradient-3)" d="M7.99999852,0.75000312 C9.92282084,0.750002749 11.7668895,1.51384078 13.1265302,2.87348148 C14.4861709,4.23312218 15.2500089,6.0771908 15.2500085,8.00001312" opacity=".25" transform="translate(11.625004, 4.375008) scale(-1, 1) rotate(-90.000000) translate(-11.625004, -4.375008)"/><path id="path5464" stroke="#2AB7EC" d="M0.74998852,0.75000312 C2.67281084,0.750002749 4.51687947,1.51384078 5.87652017,2.87348148 C7.23616086,4.23312218 7.99999889,6.0771908 7.99999852,8.00001312" transform="translate(4.374994, 4.375008) scale(-1, 1) translate(-4.374994, -4.375008)"/></g></g></svg>